<svg xmlns="http://www.w3.org/2000/svg" viewBox="0 0 186 73" fill="currentColor">

<path fill-rule="evenodd" clip-rule="evenodd" d="M104.575 71.1754H93.2467C92.986 71.1754 92.8557 71.0124 92.8557 70.6864L93.0507 1.98541C93.0507 1.72541 93.181 1.59541 93.4417 1.59541H105.649C105.909 1.59541 106.137 1.72541 106.332 1.98541L115.463 15.1694L124.545 1.98541C124.74 1.72541 124.984 1.59541 125.278 1.59541H137.534C137.826 1.59541 137.973 1.72541 137.973 1.98541L138.168 70.6864C138.168 71.0124 138.038 71.1754 137.778 71.1754H126.45C126.189 71.1754 126.059 71.0124 126.059 70.6864L125.961 19.6614L115.463 34.8954L105.063 19.6614L104.965 70.6864C104.965 71.0124 104.835 71.1754 104.575 71.1754ZM11.3617 71.1754H1.35166C0.83099 71.1754 0.570656 70.9474 0.570656 70.4914L0.472656 2.37641C0.472656 1.85575 0.73299 1.59541 1.25366 1.59541H10.2877L27.1817 40.9994L26.6937 2.37641C26.6937 1.85575 26.9867 1.59541 27.5727 1.59541H37.4847C37.8753 1.59541 38.0707 1.85575 38.0707 2.37641L38.1677 70.5894C38.1677 70.9801 38.005 71.1754 37.6797 71.1754H28.8907L11.5567 34.3584L12.2897 70.3934C12.2897 70.9147 11.9803 71.1754 11.3617 71.1754ZM45.6877 51.9854L45.8827 1.98541C45.8827 1.72541 46.013 1.59541 46.2737 1.59541H57.5037C57.7643 1.59541 57.8947 1.72541 57.8947 1.98541V51.9854C57.8947 54.2314 58.6107 56.1441 60.0427 57.7234C61.4753 59.3021 63.217 60.0914 65.2677 60.0914C67.4163 60.0914 69.2067 59.3021 70.6387 57.7234C72.0713 56.1441 72.7877 54.2314 72.7877 51.9854V1.98541C72.7877 1.72541 72.9177 1.59541 73.1777 1.59541H84.4087C84.6687 1.59541 84.7987 1.72541 84.7987 1.98541L84.9947 51.9854C84.9947 55.6641 84.1157 59.0497 82.3577 62.1424C80.567 65.2017 78.1907 67.6347 75.2287 69.4414C72.2667 71.2481 68.9463 72.1514 65.2677 72.1514C61.7523 72.1514 58.497 71.2401 55.5017 69.4174C52.507 67.5947 50.1227 65.1451 48.3487 62.0684C46.5747 58.9924 45.6877 55.6314 45.6877 51.9854ZM145.346 52.0834L145.444 20.3934C145.444 16.6827 146.339 13.3464 148.129 10.3844C149.887 7.38975 152.263 4.98908 155.258 3.18241C158.252 1.37575 161.508 0.472412 165.024 0.472412C168.67 0.472412 171.941 1.36741 174.838 3.15741C177.768 4.94808 180.12 7.34874 181.894 10.3594C183.668 13.3707 184.555 16.7154 184.555 20.3934L184.653 52.0834C184.653 55.7294 183.774 59.0661 182.016 62.0934C180.226 65.1534 177.849 67.5947 174.887 69.4174C171.925 71.2401 168.637 72.1514 165.024 72.1514C161.476 72.1514 158.204 71.2401 155.209 69.4174C152.247 67.5947 149.862 65.1614 148.056 62.1174C146.249 59.0741 145.346 55.7294 145.346 52.0834ZM172.543 52.0834C172.543 54.1341 171.794 55.9814 170.297 57.6254C168.799 59.2694 167.042 60.0914 165.024 60.0914C162.973 60.0914 161.215 59.3021 159.75 57.7234C158.285 56.1441 157.553 54.2641 157.553 52.0834V20.3934C157.553 18.1154 158.285 16.2274 159.75 14.7294C161.215 13.2321 162.973 12.4834 165.024 12.4834C167.172 12.4834 168.946 13.2484 170.346 14.7784C171.746 16.3084 172.446 18.1801 172.446 20.3934L172.543 52.0834Z" fill="currentColor"  stroke-width="0.944882" stroke-linecap="round"/>

</svg>
