<svg xmlns="http://www.w3.org/2000/svg" viewBox="0 2.6100001335144043 134.4199981689453 39.279998779296875" data-asc="0.82373046875" width="134.4199981689453" height="39.279998779296875"><defs/><g fill="#000000"><g transform="translate(0, 0)"><path d="M33.94 14.75L29.76 16.50Q29.27 14.92 28.45 13.60Q27.64 12.28 26.50 11.34Q25.37 10.40 23.93 9.88Q22.49 9.35 20.78 9.35Q18.95 9.35 17.42 9.96Q15.89 10.57 14.69 11.61Q13.48 12.65 12.57 14.04Q11.67 15.43 11.07 17.00Q10.47 18.58 10.17 20.26Q9.86 21.95 9.86 23.56Q9.86 26.12 10.46 28.66Q11.06 31.20 12.37 33.23Q13.67 35.25 15.75 36.51Q17.82 37.77 20.78 37.77Q22.39 37.77 23.29 37.05Q24.19 36.33 24.19 34.52L24.19 23.73L33.89 23.73L33.89 41.19L31.08 41.19L29.37 38.43Q27.03 40.21 24.21 41.05Q21.39 41.89 18.46 41.89Q15.87 41.89 13.49 41.26Q11.11 40.63 9.06 39.45Q7.01 38.28 5.33 36.62Q3.66 34.96 2.48 32.93Q1.29 30.91 0.65 28.53Q0 26.15 0 23.56Q0 20.97 0.65 18.59Q1.29 16.21 2.48 14.17Q3.66 12.13 5.33 10.47Q7.01 8.81 9.06 7.64Q11.11 6.47 13.49 5.83Q15.87 5.20 18.46 5.20Q20.95 5.20 23.33 5.79Q25.71 6.37 27.76 7.56Q29.81 8.74 31.41 10.53Q33.01 12.33 33.94 14.75ZM46.68 27.81Q48.19 28.15 49.71 28.34Q51.22 28.54 52.76 28.54Q54.37 28.54 55.75 28.23Q57.13 27.93 58.14 27.21Q59.16 26.49 59.74 25.29Q60.33 24.10 60.33 22.31Q60.33 20.87 59.94 19.68Q59.55 18.48 58.78 17.63Q58.01 16.77 56.88 16.30Q55.76 15.82 54.27 15.82Q52.88 15.82 51.77 16.33Q50.66 16.85 49.82 17.71Q48.97 18.58 48.38 19.73Q47.78 20.87 47.39 22.12Q47.00 23.36 46.83 24.63Q46.66 25.90 46.66 27.03Q46.66 27.22 46.66 27.42Q46.66 27.61 46.68 27.81M67.02 22.24Q67.02 23.97 66.46 25.33Q65.89 26.68 64.93 27.71Q63.96 28.74 62.70 29.44Q61.43 30.15 59.99 30.60Q58.54 31.05 57.02 31.25Q55.49 31.45 54.05 31.45Q52.22 31.45 50.44 31.19Q48.66 30.93 46.92 30.37Q47.19 31.98 47.78 33.44Q48.36 34.89 49.34 35.97Q50.32 37.06 51.75 37.70Q53.17 38.33 55.13 38.33Q56.42 38.33 57.59 37.94Q58.76 37.55 59.74 36.84Q60.72 36.13 61.46 35.16Q62.21 34.18 62.67 32.98L66.24 34.30Q65.43 36.23 64.03 37.63Q62.62 39.04 60.85 39.95Q59.08 40.87 57.09 41.31Q55.10 41.75 53.15 41.75Q49.93 41.75 47.19 40.66Q44.46 39.58 42.48 37.62Q40.50 35.67 39.38 32.96Q38.26 30.25 38.26 27.03Q38.26 23.80 39.38 21.09Q40.50 18.38 42.48 16.43Q44.46 14.48 47.19 13.39Q49.93 12.30 53.15 12.30Q54.71 12.30 56.35 12.52Q57.98 12.74 59.52 13.22Q61.06 13.70 62.43 14.45Q63.79 15.21 64.81 16.32Q65.82 17.43 66.42 18.90Q67.02 20.36 67.02 22.24ZM78.96 27.81Q80.47 28.15 81.98 28.34Q83.50 28.54 85.03 28.54Q86.65 28.54 88.02 28.23Q89.40 27.93 90.42 27.21Q91.43 26.49 92.02 25.29Q92.60 24.10 92.60 22.31Q92.60 20.87 92.21 19.68Q91.82 18.48 91.05 17.63Q90.28 16.77 89.16 16.30Q88.04 15.82 86.55 15.82Q85.16 15.82 84.05 16.33Q82.93 16.85 82.09 17.71Q81.25 18.58 80.65 19.73Q80.05 20.87 79.66 22.12Q79.27 23.36 79.10 24.63Q78.93 25.90 78.93 27.03Q78.93 27.22 78.93 27.42Q78.93 27.61 78.96 27.81M99.29 22.24Q99.29 23.97 98.73 25.33Q98.17 26.68 97.20 27.71Q96.24 28.74 94.97 29.44Q93.70 30.15 92.26 30.60Q90.82 31.05 89.29 31.25Q87.77 31.45 86.33 31.45Q84.50 31.45 82.71 31.19Q80.93 30.93 79.20 30.37Q79.47 31.98 80.05 33.44Q80.64 34.89 81.62 35.97Q82.59 37.06 84.02 37.70Q85.45 38.33 87.40 38.33Q88.70 38.33 89.87 37.94Q91.04 37.55 92.02 36.84Q92.99 36.13 93.74 35.16Q94.48 34.18 94.95 32.98L98.51 34.30Q97.71 36.23 96.30 37.63Q94.90 39.04 93.13 39.95Q91.36 40.87 89.37 41.31Q87.38 41.75 85.42 41.75Q82.20 41.75 79.47 40.66Q76.73 39.58 74.76 37.62Q72.78 35.67 71.66 32.96Q70.53 30.25 70.53 27.03Q70.53 23.80 71.66 21.09Q72.78 18.38 74.76 16.43Q76.73 14.48 79.47 13.39Q82.20 12.30 85.42 12.30Q86.99 12.30 88.62 12.52Q90.26 12.74 91.80 13.22Q93.33 13.70 94.70 14.45Q96.07 15.21 97.08 16.32Q98.10 17.43 98.69 18.90Q99.29 20.36 99.29 22.24ZM134.42 27.12Q134.42 30.20 133.50 32.89Q132.57 35.57 130.81 37.56Q129.05 39.55 126.51 40.70Q123.97 41.85 120.75 41.85Q119.12 41.85 117.64 41.36Q116.16 40.87 114.93 39.98Q113.70 39.09 112.76 37.84Q111.82 36.60 111.28 35.06L107.62 41.19L104.44 41.19L104.44 2.61L112.70 2.61L112.70 16.36Q114.16 14.33 116.22 13.38Q118.29 12.43 120.75 12.43Q123.97 12.43 126.51 13.57Q129.05 14.72 130.81 16.70Q132.57 18.68 133.50 21.36Q134.42 24.05 134.42 27.12M126.05 27.12Q126.05 26.05 125.94 24.84Q125.83 23.63 125.56 22.44Q125.29 21.24 124.82 20.14Q124.34 19.04 123.61 18.20Q122.88 17.36 121.85 16.86Q120.83 16.36 119.43 16.36Q118.16 16.36 117.18 16.88Q116.19 17.41 115.44 18.29Q114.70 19.17 114.18 20.29Q113.67 21.41 113.35 22.61Q113.04 23.80 112.89 24.98Q112.74 26.15 112.74 27.12Q112.74 28.22 112.85 29.44Q112.96 30.66 113.23 31.87Q113.50 33.08 113.98 34.17Q114.45 35.25 115.20 36.10Q115.94 36.94 116.98 37.43Q118.02 37.92 119.43 37.92Q120.80 37.92 121.84 37.41Q122.88 36.91 123.61 36.07Q124.34 35.23 124.82 34.12Q125.29 33.01 125.56 31.81Q125.83 30.62 125.94 29.41Q126.05 28.20 126.05 27.12Z"/></g></g></svg>