<svg width="502" height="502" viewBox="0 0 502 502" fill="none" xmlns="http://www.w3.org/2000/svg">
<foreignObject x="0" y="0" width="0" height="0"><div xmlns="http://www.w3.org/1999/xhtml" style="backdrop-filter:blur(0px);clip-path:url(#bgblur_0_114_154_clip_path);height:100%;width:100%"></div></foreignObject><path opacity="0.15" data-figma-bg-blur-radius="0" d="M251.692 501.5C352.943 501.5 435.024 425.061 435.024 330.768C435.024 236.476 352.943 160.037 251.692 160.037C150.44 160.037 68.3594 236.476 68.3594 330.768C68.3594 425.061 150.44 501.5 251.692 501.5Z" fill="url(#paint0_radial_114_154)"/>
<path d="M15.9788 355.159C2.8836 379.549 42.1691 428.329 173.121 445.402C304.072 462.476 461.215 440.524 500.5 391.744" stroke="url(#paint1_linear_114_154)" stroke-width="3" stroke-linecap="round"/>
<path opacity="0.7" d="M2.88355 342.963C-10.2116 367.354 29.0739 416.134 160.026 433.207" stroke="url(#paint2_linear_114_154)" stroke-dasharray="4 6"/>
<path d="M186.216 221.012C146.931 160.037 199.311 111.256 160.026 50.2805" stroke="url(#paint3_linear_114_154)" stroke-width="3" stroke-linecap="round"/>
<path d="M160.026 69.7927C171.597 69.7927 180.978 61.0568 180.978 50.2805C180.978 39.5042 171.597 30.7683 160.026 30.7683C148.454 30.7683 139.073 39.5042 139.073 50.2805C139.073 61.0568 148.454 69.7927 160.026 69.7927Z" fill="#111827" stroke="#F97316" stroke-width="3"/>
<path d="M160.026 57.5976C164.365 57.5976 167.883 54.3216 167.883 50.2805C167.883 46.2394 164.365 42.9634 160.026 42.9634C155.686 42.9634 152.168 46.2394 152.168 50.2805C152.168 54.3216 155.686 57.5976 160.026 57.5976Z" fill="#F59E0B"/>
<path d="M251.692 221.012C251.692 147.841 277.882 111.256 264.787 25.8902" stroke="url(#paint4_linear_114_154)" stroke-width="3" stroke-linecap="round"/>
<path d="M264.787 50.2805C279.252 50.2805 290.977 39.3606 290.977 25.8902C290.977 12.4199 279.252 1.5 264.787 1.5C250.322 1.5 238.597 12.4199 238.597 25.8902C238.597 39.3606 250.322 50.2805 264.787 50.2805Z" fill="#111827" stroke="#EA580C" stroke-width="3"/>
<path d="M264.787 35.6463C270.573 35.6463 275.263 31.2784 275.263 25.8902C275.263 20.5021 270.573 16.1341 264.787 16.1341C259.001 16.1341 254.311 20.5021 254.311 25.8902C254.311 31.2784 259.001 35.6463 264.787 35.6463Z" fill="#F97316"/>
<path d="M317.168 221.012C356.453 167.354 317.168 123.451 356.453 62.4756" stroke="url(#paint5_linear_114_154)" stroke-width="3" stroke-linecap="round"/>
<path d="M356.453 81.9878C368.025 81.9878 377.406 73.2519 377.406 62.4756C377.406 51.6993 368.025 42.9634 356.453 42.9634C344.882 42.9634 335.501 51.6993 335.501 62.4756C335.501 73.2519 344.882 81.9878 356.453 81.9878Z" fill="#111827" stroke="#F59E0B" stroke-width="3"/>
<path d="M356.453 69.7927C360.793 69.7927 364.31 66.5167 364.31 62.4756C364.31 58.4345 360.793 55.1585 356.453 55.1585C352.114 55.1585 348.596 58.4345 348.596 62.4756C348.596 66.5167 352.114 69.7927 356.453 69.7927Z" fill="#F97316"/>
<path opacity="0.6" d="M160.026 50.2805C212.407 13.6951 225.502 38.0854 264.787 25.8902" stroke="#F97316" stroke-width="1.5" stroke-dasharray="3 3"/>
<path opacity="0.6" d="M264.787 25.8902C304.073 38.0854 317.168 38.0854 356.453 62.4756" stroke="#F97316" stroke-width="1.5" stroke-dasharray="3 3"/>
<path d="M251.692 247.841C302.318 247.841 343.358 241.29 343.358 233.207C343.358 225.125 302.318 218.573 251.692 218.573C201.066 218.573 160.026 225.125 160.026 233.207C160.026 241.29 201.066 247.841 251.692 247.841Z" fill="#1F2937" stroke="#4B5563" stroke-width="1.5"/>
<path d="M146.93 257.598C107.645 257.598 107.645 306.378 152.168 311.256" stroke="url(#paint6_linear_114_154)" stroke-width="4.5" stroke-linecap="round"/>
<path d="M356.453 257.598C395.739 257.598 395.739 306.378 351.215 311.256" stroke="url(#paint7_linear_114_154)" stroke-width="4.5" stroke-linecap="round"/>
<path d="M157.407 240.524C146.931 330.768 120.741 403.939 251.692 403.939C382.644 403.939 356.454 330.768 345.978 240.524C317.168 250.28 290.978 252.72 251.692 252.72C212.407 252.72 186.217 250.28 157.407 240.524Z" fill="url(#paint8_linear_114_154)"/>
<path opacity="0.2" d="M173.121 260.037C173.121 330.768 173.121 379.549 251.692 379.549C330.263 379.549 330.263 330.768 330.263 260.037" stroke="white" stroke-width="2" stroke-linecap="round"/>
<path d="M254.422 206.962C254.587 208.054 255.608 208.823 256.703 208.68C257.798 208.536 258.553 207.535 258.388 206.442L256.405 206.702L254.422 206.962ZM295.918 201.53C296.083 202.623 297.105 203.392 298.2 203.248C299.295 203.105 300.049 202.104 299.885 201.011L297.901 201.271L295.918 201.53ZM256.405 206.702L258.388 206.442C257.784 202.443 259.426 199.117 262.55 196.526C265.722 193.895 270.348 192.116 275.265 191.472C280.181 190.829 285.154 191.352 288.983 193.067C292.752 194.755 295.315 197.531 295.918 201.53L297.901 201.271L299.885 201.011C299.03 195.35 295.312 191.558 290.572 189.435C285.891 187.337 280.125 186.803 274.668 187.517C269.21 188.231 263.826 190.225 259.947 193.443C256.019 196.701 253.567 201.3 254.422 206.962L256.405 206.702Z" fill="url(#paint9_linear_114_154)"/>
<path d="M279.705 220.893C331.27 214.144 372.093 202.185 370.885 194.182C369.677 186.178 326.896 185.161 275.331 191.91C223.765 198.659 182.942 210.618 184.15 218.622C185.358 226.625 228.139 227.642 279.705 220.893Z" fill="#374151" stroke="url(#paint10_linear_114_154)" stroke-width="2"/>
<path opacity="0.8" d="M278.975 216.063C313.352 211.564 340.567 203.591 339.762 198.255C338.957 192.919 310.436 192.241 276.059 196.741C241.682 201.24 214.467 209.213 215.272 214.548C216.077 219.884 244.598 220.562 278.975 216.063Z" fill="url(#paint11_linear_114_154)"/>
<path opacity="0.9" d="M55.2646 372.232C133.836 411.256 290.978 421.012 395.739 391.744" stroke="#F59E0B" stroke-width="3" stroke-linecap="round"/>
<foreignObject x="0" y="0" width="0" height="0"><div xmlns="http://www.w3.org/1999/xhtml" style="backdrop-filter:blur(0px);clip-path:url(#bgblur_1_114_154_clip_path);height:100%;width:100%"></div></foreignObject><path data-figma-bg-blur-radius="0" d="M225.502 421.012C231.287 421.012 235.978 416.644 235.978 411.256C235.978 405.868 231.287 401.5 225.502 401.5C219.716 401.5 215.025 405.868 215.025 411.256C215.025 416.644 219.716 421.012 225.502 421.012Z" fill="white"/>
<path d="M225.502 416.134C228.395 416.134 230.74 413.95 230.74 411.256C230.74 408.562 228.395 406.378 225.502 406.378C222.609 406.378 220.264 408.562 220.264 411.256C220.264 413.95 222.609 416.134 225.502 416.134Z" fill="#F97316"/>
<defs>
<clipPath id="bgblur_0_114_154_clip_path" transform="translate(0 0)"><path d="M251.692 501.5C352.943 501.5 435.024 425.061 435.024 330.768C435.024 236.476 352.943 160.037 251.692 160.037C150.44 160.037 68.3594 236.476 68.3594 330.768C68.3594 425.061 150.44 501.5 251.692 501.5Z"/>
</clipPath><clipPath id="bgblur_1_114_154_clip_path" transform="translate(0 0)"><path d="M225.502 421.012C231.287 421.012 235.978 416.644 235.978 411.256C235.978 405.868 231.287 401.5 225.502 401.5C219.716 401.5 215.025 405.868 215.025 411.256C215.025 416.644 219.716 421.012 225.502 421.012Z"/>
</clipPath><radialGradient id="paint0_radial_114_154" cx="0" cy="0" r="1" gradientUnits="userSpaceOnUse" gradientTransform="translate(251.692 330.768) scale(183.332 170.732)">
<stop stop-color="#F97316"/>
<stop offset="1" stop-color="#F97316" stop-opacity="0"/>
</radialGradient>
<linearGradient id="paint1_linear_114_154" x1="13.5952" y1="355.159" x2="50.0201" y2="539.94" gradientUnits="userSpaceOnUse">
<stop stop-color="#F97316"/>
<stop offset="0.5" stop-color="#EA580C"/>
<stop offset="1" stop-color="#F59E0B"/>
</linearGradient>
<linearGradient id="paint2_linear_114_154" x1="0.5" y1="342.963" x2="77.8491" y2="479.695" gradientUnits="userSpaceOnUse">
<stop stop-color="#F97316"/>
<stop offset="0.5" stop-color="#EA580C"/>
<stop offset="1" stop-color="#F59E0B"/>
</linearGradient>
<linearGradient id="paint3_linear_114_154" x1="160.026" y1="50.2805" x2="211.202" y2="58.131" gradientUnits="userSpaceOnUse">
<stop stop-color="#F97316"/>
<stop offset="0.5" stop-color="#EA580C"/>
<stop offset="1" stop-color="#F59E0B"/>
</linearGradient>
<linearGradient id="paint4_linear_114_154" x1="251.692" y1="25.8902" x2="284.97" y2="28.749" gradientUnits="userSpaceOnUse">
<stop stop-color="#F97316"/>
<stop offset="0.5" stop-color="#EA580C"/>
<stop offset="1" stop-color="#F59E0B"/>
</linearGradient>
<linearGradient id="paint5_linear_114_154" x1="317.168" y1="62.4756" x2="391.193" y2="80.8192" gradientUnits="userSpaceOnUse">
<stop stop-color="#F97316"/>
<stop offset="0.5" stop-color="#EA580C"/>
<stop offset="1" stop-color="#F59E0B"/>
</linearGradient>
<linearGradient id="paint6_linear_114_154" x1="118.09" y1="257.598" x2="166.657" y2="288.442" gradientUnits="userSpaceOnUse">
<stop stop-color="#F97316"/>
<stop offset="0.5" stop-color="#EA580C"/>
<stop offset="1" stop-color="#F59E0B"/>
</linearGradient>
<linearGradient id="paint7_linear_114_154" x1="351.215" y1="257.598" x2="399.782" y2="288.442" gradientUnits="userSpaceOnUse">
<stop stop-color="#F97316"/>
<stop offset="0.5" stop-color="#EA580C"/>
<stop offset="1" stop-color="#F59E0B"/>
</linearGradient>
<linearGradient id="paint8_linear_114_154" x1="148.042" y1="240.524" x2="306.94" y2="442.095" gradientUnits="userSpaceOnUse">
<stop stop-color="#F97316"/>
<stop offset="0.5" stop-color="#EA580C"/>
<stop offset="1" stop-color="#F59E0B"/>
</linearGradient>
<linearGradient id="paint9_linear_114_154" x1="254.218" y1="192.21" x2="266.799" y2="217.034" gradientUnits="userSpaceOnUse">
<stop stop-color="#F97316"/>
<stop offset="0.5" stop-color="#EA580C"/>
<stop offset="1" stop-color="#F59E0B"/>
</linearGradient>
<linearGradient id="paint10_linear_114_154" x1="181.963" y1="204.13" x2="198.294" y2="259.876" gradientUnits="userSpaceOnUse">
<stop stop-color="#F97316"/>
<stop offset="0.5" stop-color="#EA580C"/>
<stop offset="1" stop-color="#F59E0B"/>
</linearGradient>
<linearGradient id="paint11_linear_114_154" x1="213.814" y1="204.887" x2="224.701" y2="242.051" gradientUnits="userSpaceOnUse">
<stop stop-color="#F97316"/>
<stop offset="0.5" stop-color="#EA580C"/>
<stop offset="1" stop-color="#F59E0B"/>
</linearGradient>
</defs>
</svg>
